<svg width="91" height="56" viewBox="0 0 91 56" fill="none" xmlns="http://www.w3.org/2000/svg">
<path d="M82.3522 6.42017H3.13919C1.95775 6.42017 1 7.53659 1 8.91378V52.4053C1 53.7825 1.95775 54.8989 3.13919 54.8989H82.3522C83.5337 54.8989 84.4914 53.7825 84.4914 52.4053V8.91378C84.4914 7.53659 83.5337 6.42017 82.3522 6.42017Z" stroke="#FF9000" stroke-width="1.97486"/>
<path d="M82.8697 54.9794C84.1863 53.6628 90 48.3623 90 46.9852V3.49361C90 2.11643 89.0423 1 87.8608 1H8.64777C7.16686 1.65829 3.21714 5.608 1.90057 6.92457" stroke="#FF9000" stroke-width="1.97486"/>
<path d="M1 30.6228L9.87136 36.1234V54.8255" stroke="#FF9000" stroke-width="1.97486"/>
<path d="M75.9976 11.3341V49.7651" stroke="#FF9000" stroke-width="1.97486"/>
</svg>
