<svg width="78" height="73" viewBox="0 0 78 73" fill="none" xmlns="http://www.w3.org/2000/svg">
<path d="M36.0073 7.83556L38.7817 6.47358L39.4742 6.13086" stroke="#FF9000" stroke-width="1.88118" stroke-linejoin="bevel"/>
<path d="M29.0785 28.2658L56.8038 14.6329L29.0785 1L1.34857 14.6329L29.0785 28.2658Z" stroke="#FF9000" stroke-width="1.88118" stroke-linejoin="bevel"/>
<path d="M28.7299 58.9626L1 45.3294V14.6542L28.7299 28.2871V58.9626Z" stroke="#FF9000" stroke-width="1.88118" stroke-linejoin="bevel"/>
<path d="M56.4598 31V14.6542L28.7299 28.2871V58.9626L36.5 55" stroke="#FF9000" stroke-width="1.88118" stroke-linejoin="bevel"/>
<path d="M18.6781 23.1733L22.1449 21.4687" stroke="#FF9000" stroke-width="1.88118" stroke-linejoin="bevel"/>
<path d="M22.145 21.4687L46.4081 9.54034" stroke="#FF9000" stroke-width="1.88118" stroke-linejoin="bevel"/>
<path d="M11.7443 19.7639L36.0074 7.83563" stroke="#FF9000" stroke-width="1.88118" stroke-linejoin="bevel"/>
<path d="M20.407 30.3303L13.1293 27.2636V20.4451L20.407 23.5118V30.3303Z" stroke="#FF9000" stroke-width="1.88118" stroke-linejoin="bevel"/>
<path d="M56.8042 50.345L76.9079 40.6396L56.8042 31.0969L36.7003 40.6396L56.8042 50.345Z" stroke="#FF9000" stroke-width="1.88118" stroke-linejoin="bevel"/>
<path d="M56.4556 72L36.3516 62.4575V40.6438L56.4556 50.3492V72Z" stroke="#FF9000" stroke-width="1.88118" stroke-linejoin="bevel"/>
<path d="M56.4556 72L76.5595 62.4575V40.6438L56.4556 50.345V72Z" stroke="#FF9000" stroke-width="1.88118" stroke-linejoin="bevel"/>
</svg>
